<svg data-name="Layer 1" xmlns="http://www.w3.org/2000/svg" width="515" height="131" viewBox="0 0 515 131.139"><path data-name="path14" d="M243.72 114.113l-9.454-12.054H190.19c.831-1.118 53.462-70.413 53.462-70.413h-77.613l9.327 11.911h44.228c-.83 1.084-53.7 70.531-53.7 70.531l77.825.027z" fill="#0679ea"/><path data-name="path16" d="M380.282 31.644h-35.943v82.2h12.283V43.913h21.923c21.559 0 34.435 9.835 34.435 26.337v43.6h12.258V69.62c0-18.9-13.9-37.976-44.957-37.976" fill="#0679ea"/><path data-name="path18" d="M504.198 8.182l-.007 23.457h-28.37c-20.712 0-36.968 13.613-40.433 33.893a61.993 61.993 0 0 0-.5 7.183 55.862 55.862 0 0 0 .5 6.989 41.006 41.006 0 0 0 40.433 34.385l39.179.027V0l-10.8 8.183zm-1.483 35.723v57.96h-27.124c-12.749 0-24.77-9.852-27.938-22.9 0-.014-.483-6.252-.483-6.252a50.1 50.1 0 0 1 .483-6.294c2.922-13.469 14.519-22.431 28.92-22.431 0 0 25.448-.085 26.142-.085" fill="#0679ea"/><path data-name="path20" d="M331.833 77.293l.212-4.506a44.222 44.222 0 1 0-2.635 14.9h-13.113a31.994 31.994 0 0 1-60.052-10.445h64.271l11.317.048zm-74.919-12.334a31.985 31.985 0 0 1 62.085 0z" fill="#0679ea"/><path d="M75.783 31.787H17.404c-9.426 0-17.4 6.889-17.4 16.679v82.673" fill="#0679ea"/><path d="M45.328 114.457h58.015a17.406 17.406 0 0 0 17.4-17.4V15.104" fill="#0679ea"/></svg>